<svg width="24" height="24" viewBox="0 0 24 24" fill="none" xmlns="http://www.w3.org/2000/svg">
<g id="sugi logo">
<path id="Vector" d="M11.1858 4L11.4603 7.01927L11.5975 9.76406M16.1264 4L16.2637 9.35234M7.06862 14.293C7.06862 14.293 6.79414 15.5281 7.3431 16.626C7.89206 17.724 7.94695 17.5867 8.44102 17.9984C8.93508 18.4102 9.40169 18.8219 9.95065 19.0964L11.323 19.7825C11.5975 19.9198 12.421 20.1943 13.2444 19.7825C14.0678 19.3708 14.3423 18.9591 14.3423 18.9591C14.3423 18.9591 14.8913 18.4102 15.0285 17.4495C15.1658 16.4888 15.12 16.7812 15.1658 16.3516C15.2398 15.6567 15.303 14.5674 15.303 14.5674V13.8812" stroke="#71BF19" stroke-width="1.25" stroke-linecap="round"/>
</g>
</svg>
