<svg width="24" height="24" viewBox="0 0 24 24" fill="none" xmlns="http://www.w3.org/2000/svg">
<g id="PaperPlaneTilt">
<path id="Vector" d="M21.3113 2.689C21.1226 2.5005 20.8872 2.36569 20.6291 2.29846C20.3711 2.23122 20.0998 2.234 19.8431 2.3065H19.8291L1.83469 7.7665C1.54178 7.85074 1.28147 8.02221 1.08844 8.25808C0.895411 8.49395 0.778814 8.78303 0.754177 9.08682C0.72954 9.39061 0.798032 9.6947 0.950532 9.95859C1.10303 10.2225 1.3323 10.4337 1.60782 10.564L9.63469 14.3656L13.4363 22.3924C13.5563 22.6495 13.7473 22.8668 13.9869 23.0188C14.2264 23.1708 14.5044 23.2511 14.7881 23.2502C14.8313 23.2502 14.8744 23.2484 14.9175 23.2446C15.2202 23.2201 15.5082 23.1036 15.7428 22.9107C15.9774 22.7178 16.1474 22.4578 16.23 22.1656L21.6863 4.17119C21.6863 4.1665 21.6863 4.16181 21.6863 4.15712C21.7597 3.90115 21.7637 3.63024 21.6978 3.37223C21.6319 3.11421 21.4985 2.8784 21.3113 2.689ZM14.7966 21.7362L14.7919 21.7493L11.1019 13.9596L15.5306 9.52994C15.6653 9.38814 15.7393 9.19933 15.7368 9.00376C15.7343 8.80818 15.6555 8.62133 15.5172 8.48303C15.3789 8.34473 15.1921 8.26592 14.9965 8.26342C14.8009 8.26091 14.6121 8.33491 14.4703 8.46962L10.0406 12.8984L2.25001 9.20837H2.26313L20.25 3.75025L14.7966 21.7362Z" fill="#F8FAFC"/>
</g>
</svg>
