<svg width="126" height="135" viewBox="0 0 126 135" fill="none" xmlns="http://www.w3.org/2000/svg">
<path id="Smile" fill-rule="evenodd" clip-rule="evenodd" d="M135 67.5C135 104.779 104.779 135 67.5 135C30.2208 135 0 104.779 0 67.5C0 30.2208 30.2208 0 67.5 0C104.779 0 135 30.2208 135 67.5ZM49.5002 56.0002C55.8511 56.0002 61 50.8514 61 44.4999C61 38.149 55.8511 33 49.5002 33C43.1487 33 37.9998 38.149 37.9998 44.4999C37.9998 50.8514 43.1487 56.0002 49.5002 56.0002ZM85.4998 56.0002C91.8513 56.0002 97.0002 50.8514 97.0002 44.4999C97.0002 38.149 91.8513 33 85.4998 33C79.1489 33 74 38.149 74 44.4999C74 50.8514 79.1489 56.0002 85.4998 56.0002ZM67.9999 91C52.5362 91 40.0001 78.4639 40.0001 63.0002H28C28 85.0913 45.9088 103 67.9999 103C90.0916 103 108 85.0913 108 63.0002H95.9997C95.9997 78.4639 83.4642 91 67.9999 91Z" fill="#DC5B27"/>
</svg>
